HIERARCHY
ROOT joint_Root
{
	OFFSET 0.0 0.0 0.0
	CHANNELS 6 Xposition Yposition Zposition Zrotation Xrotation Yrotation 
	JOINT Hips
	{
		OFFSET -17.1583 93.1646 452.98
		CHANNELS 6 Xposition Yposition Zposition Zrotation Xrotation Yrotation 
		JOINT Spine
		{
			OFFSET 15.7357 0.0 0.0
			CHANNELS 6 Xposition Yposition Zposition Zrotation Xrotation Yrotation 
			JOINT Chest
			{
				OFFSET 8.98455 -0.406207 0.0
				CHANNELS 6 Xposition Yposition Zposition Zrotation Xrotation Yrotation 
				JOINT Neck
				{
					OFFSET 16.3773 0.0 0.0
					CHANNELS 6 Xposition Yposition Zposition Zrotation Xrotation Yrotation 
					JOINT Head
					{
						OFFSET 6.45672 0.0 0.0
						CHANNELS 6 Xposition Yposition Zposition Zrotation Xrotation Yrotation 
						End Site
						{
							OFFSET 0.0 0.0 0.0
						}
					}
				}
				JOINT Shoulder_L
				{
					OFFSET 12.9942 -0.242716 4.98039
					CHANNELS 6 Xposition Yposition Zposition Zrotation Xrotation Yrotation 
					JOINT UpperArm_L
					{
						OFFSET 5.34809 0.0 0.0
						CHANNELS 6 Xposition Yposition Zposition Zrotation Xrotation Yrotation 
						JOINT LowerArm_L
						{
							OFFSET 24.3286 1.87007e-05 0.0
							CHANNELS 6 Xposition Yposition Zposition Zrotation Xrotation Yrotation 
							JOINT Hand_L
							{
								OFFSET 22.2916 0.0 0.0
								CHANNELS 6 Xposition Yposition Zposition Zrotation Xrotation Yrotation 
								End Site
								{
									OFFSET 0.0 0.0 0.0
								}
							}
						}
					}
				}
				JOINT Shoulder_R
				{
					OFFSET 12.9945 -0.242716 -4.98039
					CHANNELS 6 Xposition Yposition Zposition Zrotation Xrotation Yrotation 
					JOINT UpperArm_R
					{
						OFFSET -5.34813 0.0 0.0
						CHANNELS 6 Xposition Yposition Zposition Zrotation Xrotation Yrotation 
						JOINT LowerArm_R
						{
							OFFSET -24.3289 0.000322201 0.0
							CHANNELS 6 Xposition Yposition Zposition Zrotation Xrotation Yrotation 
							JOINT Hand_R
							{
								OFFSET -22.2915 -0.000108084 0.0
								CHANNELS 6 Xposition Yposition Zposition Zrotation Xrotation Yrotation 
								End Site
								{
									OFFSET 0.0 0.0 0.0
								}
							}
						}
					}
				}
			}
		}
		JOINT UpperLeg_L
		{
			OFFSET -2.19248 -6.46944 0.0
			CHANNELS 6 Xposition Yposition Zposition Zrotation Xrotation Yrotation 
			JOINT LowerLeg_L
			{
				OFFSET 39.0811 0.0 -1.23785e-05
				CHANNELS 6 Xposition Yposition Zposition Zrotation Xrotation Yrotation 
				JOINT Foot_L
				{
					OFFSET 40.9854 0.0 -1.26872e-05
					CHANNELS 6 Xposition Yposition Zposition Zrotation Xrotation Yrotation 
					JOINT Toes_L
					{
						OFFSET 11.7543 0.0 0.0
						CHANNELS 6 Xposition Yposition Zposition Zrotation Xrotation Yrotation 
						End Site
						{
							OFFSET 0.0 0.0 0.0
						}
					}
				}
			}
		}
		JOINT UpperLeg_R
		{
			OFFSET -2.19251 6.46944 0.0
			CHANNELS 6 Xposition Yposition Zposition Zrotation Xrotation Yrotation 
			JOINT LowerLeg_R
			{
				OFFSET -39.0811 -0.00228153 -0.0401928
				CHANNELS 6 Xposition Yposition Zposition Zrotation Xrotation Yrotation 
				JOINT Foot_R
				{
					OFFSET -40.9854 0.0 0.0
					CHANNELS 6 Xposition Yposition Zposition Zrotation Xrotation Yrotation 
					JOINT Toes_R
					{
						OFFSET -11.7543 0.0 0.0
						CHANNELS 6 Xposition Yposition Zposition Zrotation Xrotation Yrotation 
						End Site
						{
							OFFSET 0.0 0.0 0.0
						}
					}
				}
			}
		}
	}
}
MOTION
Frames:	6
Frame Time:	0.0333333
0.000000 0.000000 0.000000 0.000000 0.000000 -0.000000 2.462540 91.126500 -502.144000 93.203700 -10.124600 -4.402410 15.735700 0.000005 -0.000001 104.449000 88.876100 -104.755000 8.984550 -0.406207 -0.000000 -5.587850 0.595729 -0.582416 16.377300 -0.000001 -0.000001 2.574980 5.873110 -1.594490 6.456720 -0.000001 -0.000000 4.593230 8.126080 -5.380640 12.994200 -0.242716 4.980390 -93.349000 9.164420 -69.826200 5.348090 -0.000007 -0.000001 -68.250900 -5.515000 8.328530 24.328600 0.000019 0.000005 28.510500 33.174200 -44.788600 22.291600 -0.000001 0.000005 46.866000 4.755460 12.146900 12.994500 -0.242716 -4.980390 88.981500 3.239780 -72.538000 -5.348130 -0.000001 -0.000004 -72.272100 12.224900 1.133220 -24.328900 0.000322 -0.000009 5.704310 9.677300 -30.724200 -22.291500 -0.000108 -0.000004 40.475000 5.390790 -2.639450 -2.192480 -6.469440 -0.000000 173.224000 -6.071630 -12.769700 39.081100 -0.000007 -0.000012 -0.011578 0.021619 28.172600 40.985400 -0.000006 -0.000013 0.200538 9.780750 -74.337200 11.754300 -0.000000 0.000003 -0.000618 0.177456 -9.378690 -2.192510 6.469440 -0.000001 172.117000 8.830870 171.324000 -39.081100 -0.002282 -0.040193 0.251076 -0.179870 54.030400 -40.985400 0.000008 0.000006 0.623084 -17.539800 -31.738100 -11.754300 -0.000006 -0.000006 -0.001964 0.195935 -8.624090
0.000000 0.000000 0.000000 0.000000 0.000000 -0.000000 2.573660 91.081600 -499.567000 93.135400 -8.336610 -3.457430 15.735700 0.000005 -0.000001 80.571200 88.408100 -80.728300 8.984550 -0.406207 -0.000000 -4.625920 -0.504150 -0.334825 16.377300 -0.000001 -0.000001 2.413210 5.693860 -1.782000 6.456720 -0.000001 -0.000000 4.298530 7.990180 -5.321150 12.994200 -0.242716 4.980390 -93.172100 8.903230 -70.298300 5.348090 -0.000007 -0.000001 -69.134100 -3.414210 4.584210 24.328600 0.000019 0.000005 32.153200 33.081800 -49.029500 22.291600 -0.000001 0.000005 47.246600 4.720390 12.788800 12.994500 -0.242716 -4.980390 89.015300 3.090070 -72.315900 -5.348130 -0.000001 -0.000004 -71.564400 11.229100 2.367470 -24.328900 0.000322 -0.000009 4.756160 10.637400 -24.267400 -22.291500 -0.000108 -0.000004 39.632500 5.386800 -2.512900 -2.192480 -6.469440 -0.000000 173.372000 -5.546930 -9.238980 39.081100 -0.000007 -0.000012 -0.018802 0.037129 26.857800 40.985400 -0.000006 -0.000013 0.889033 10.615000 -75.057800 11.754300 -0.000000 0.000003 -0.000616 0.177419 -9.380200 -2.192510 6.469440 -0.000001 173.373000 5.173770 166.428000 -39.081100 -0.002282 -0.040193 0.183068 -0.094680 62.240200 -40.985400 0.000008 0.000006 -0.742137 -5.191000 -38.682400 -11.754300 -0.000006 -0.000006 -0.001433 0.189050 -8.904030
0.000000 0.000000 0.000000 0.000000 0.000000 -0.000000 2.415290 91.333700 -497.146000 92.528000 -6.198910 -2.596430 15.735700 0.000005 -0.000001 66.949800 87.745400 -66.804200 8.984550 -0.406207 -0.000000 -3.615500 -1.778940 0.235097 16.377300 -0.000001 -0.000001 2.322490 5.509170 -1.962080 6.456720 -0.000001 -0.000000 4.143190 8.033000 -5.171750 12.994200 -0.242716 4.980390 -93.049300 8.793310 -70.788400 5.348090 -0.000007 -0.000001 -69.195000 -1.818800 0.691947 24.328600 0.000019 0.000005 35.953900 32.752600 -53.279200 22.291600 -0.000001 0.000005 47.662000 4.701140 13.133800 12.994500 -0.242716 -4.980390 89.060000 2.925850 -72.180100 -5.348130 -0.000001 -0.000004 -70.836600 9.949170 3.812670 -24.328900 0.000322 -0.000009 3.863960 12.006100 -17.997100 -22.291500 -0.000108 -0.000004 38.553100 5.370040 -1.984850 -2.192480 -6.469440 -0.000000 174.320000 -4.341600 -5.491540 39.081100 -0.000007 -0.000012 -0.022814 0.049585 24.706900 40.985400 -0.000006 -0.000013 0.728363 11.380900 -74.376600 11.754300 -0.000000 0.000003 0.000239 0.163495 -9.945750 -2.192510 6.469440 -0.000001 175.050000 2.242020 161.482000 -39.081100 -0.002282 -0.040193 0.190760 -0.078191 67.375700 -40.985400 0.000008 0.000006 -5.225120 -4.372930 -44.478600 -11.754300 -0.000006 -0.000006 -0.001291 0.187121 -8.982460
0.000000 0.000000 0.000000 0.000000 0.000000 -0.000000 2.116380 91.823200 -494.829000 91.703200 -4.119720 -2.257070 15.735700 0.000005 -0.000001 58.512200 87.176100 -58.011800 8.984550 -0.406207 -0.000000 -2.938380 -2.995470 0.924080 16.377300 -0.000001 -0.000001 2.307030 5.260270 -2.042410 6.456720 -0.000001 -0.000000 4.053790 8.077700 -4.970240 12.994200 -0.242716 4.980390 -92.901000 8.587310 -71.254000 5.348090 -0.000007 -0.000001 -68.719600 -0.430288 -2.825020 24.328600 0.000019 0.000005 40.056600 31.844400 -57.888900 22.291600 -0.000001 0.000005 47.750400 4.665760 13.768000 12.994500 -0.242716 -4.980390 89.189200 2.500160 -72.026700 -5.348130 -0.000001 -0.000004 -70.363300 7.920860 5.516400 -24.328900 0.000322 -0.000009 2.857310 12.959800 -12.551300 -22.291500 -0.000108 -0.000004 37.448100 5.333390 -0.881814 -2.192480 -6.469440 -0.000000 175.528000 -3.183740 -1.953920 39.081100 -0.000007 -0.000012 -0.020462 0.051772 21.565900 40.985400 -0.000006 -0.000013 0.497051 12.026900 -72.675400 11.754300 -0.000000 0.000003 0.001128 0.145781 -10.664800 -2.192510 6.469440 -0.000001 176.928000 0.748879 156.835000 -39.081100 -0.002282 -0.040193 0.145213 -0.054308 69.082600 -40.985400 0.000008 0.000006 -6.267720 -7.246330 -52.210600 -11.754300 -0.000006 -0.000006 -0.002710 0.204944 -8.257660
0.000000 0.000000 0.000000 0.000000 0.000000 -0.000000 1.780100 92.381000 -492.616000 90.816300 -2.296790 -2.500220 15.735700 0.000005 -0.000001 51.462700 86.773700 -50.584000 8.984550 -0.406207 -0.000000 -2.689690 -4.098820 1.661620 16.377300 -0.000001 -0.000001 2.372950 5.048660 -2.133080 6.456720 -0.000001 -0.000000 4.104390 8.175750 -4.747720 12.994200 -0.242716 4.980390 -92.780300 8.394920 -71.601100 5.348090 -0.000007 -0.000001 -68.100400 0.094603 -5.919830 24.328600 0.000019 0.000005 43.553500 30.283000 -62.057800 22.291600 -0.000001 0.000005 47.929500 4.629500 14.403900 12.994500 -0.242716 -4.980390 89.370500 1.929290 -71.925000 -5.348130 -0.000001 -0.000004 -69.834400 5.500500 7.430250 -24.328900 0.000322 -0.000009 1.946520 13.519900 -8.277280 -22.291500 -0.000108 -0.000004 36.975500 5.292310 0.284934 -2.192480 -6.469440 -0.000000 176.940000 -3.056290 0.953520 39.081100 -0.000007 -0.000012 -0.015411 0.047305 18.044300 40.985400 -0.000006 -0.000013 0.189009 13.281600 -70.296400 11.754300 -0.000000 0.000003 0.001819 0.127269 -11.415800 -2.192510 6.469440 -0.000001 178.530000 -0.369913 152.795000 -39.081100 -0.002282 -0.040193 0.099833 -0.041481 66.779100 -40.985400 0.000008 0.000006 -7.117150 -10.473600 -58.893900 -11.754300 -0.000006 -0.000006 -0.001831 0.194244 -8.692850
0.000000 0.000000 0.000000 0.000000 0.000000 -0.000000 1.479780 92.860400 -490.386000 89.967200 -1.068910 -2.933810 15.735700 0.000005 -0.000001 47.761900 86.536300 -46.530000 8.984550 -0.406207 -0.000000 -2.588630 -4.766300 2.357270 16.377300 -0.000001 -0.000001 2.408980 4.874040 -2.134740 6.456720 -0.000001 -0.000000 4.198840 8.250730 -4.573430 12.994200 -0.242716 4.980390 -92.655200 8.196650 -71.981300 5.348090 -0.000007 -0.000001 -68.007000 -0.580578 -8.548350 24.328600 0.000019 0.000005 46.529800 28.273800 -65.817100 22.291600 -0.000001 0.000005 48.049000 4.604790 14.832000 12.994500 -0.242716 -4.980390 89.538900 1.404630 -71.826700 -5.348130 -0.000001 -0.000004 -69.081600 3.688630 9.485300 -24.328900 0.000322 -0.000009 1.303610 14.453700 -5.214650 -22.291500 -0.000108 -0.000004 37.075800 5.267450 0.966657 -2.192480 -6.469440 -0.000000 178.296000 -3.783020 3.653930 39.081100 -0.000007 -0.000012 -0.009606 0.037101 14.515100 40.985400 -0.000006 -0.000013 0.294196 14.571900 -67.788100 11.754300 -0.000000 0.000003 0.002446 0.094595 -12.740600 -2.192510 6.469440 -0.000001 179.765000 -1.780430 150.044000 -39.081100 -0.002282 -0.040193 0.046156 -0.024348 60.456500 -40.985400 0.000008 0.000006 -6.330430 -13.382600 -63.058100 -11.754300 -0.000006 -0.000006 -0.002406 0.201355 -8.403630
